<svg xmlns="http://www.w3.org/2000/svg" xmlns:xlink="http://www.w3.org/1999/xlink" width="100.0" height="100.0" viewBox="-2.16 -2.16 3.5700000000000003 4.32" preserveAspectRatio="xMinYMin meet"><g transform="matrix(1,0,0,-1,0,0.0)"><path fill-rule="evenodd" fill="#66cc99" stroke="#555555" stroke-width="0.0864" opacity="0.6" d="M 1.1111404660392046,-1.6629392246050905 L 0.9427934736519956,-1.7638425286967099 L 0.7653668647301797,-1.8477590650225735 L 0.5805693545089247,-1.9138806714644179 L 0.39018064403225666,-1.9615705608064609 L 0.19603428065912154,-1.9903694533443936 L 1.2246467991473532e-16,-2.0 L -0.1960342806591213,-1.9903694533443939 L -0.3901806440322564,-1.9615705608064609 L -0.5805693545089243,-1.9138806714644179 L -0.7653668647301795,-1.8477590650225735 L -0.9427934736519954,-1.76384252869671 L -1.111140466039204,-1.662939224605091 L -1.2687865683272908,-1.5460209067254742 L -1.414213562373095,-1.4142135623730951 L -1.546020906725474,-1.268786568327291 L -1.6629392246050907,-1.1111404660392044 L -1.7638425286967099,-0.9427934736519957 L -1.8477590650225735,-0.7653668647301798 L -1.9138806714644176,-0.5805693545089248 L -1.9615705608064609,-0.3901806440322572 L -1.9903694533443936,-0.19603428065912165 L -2.0,-2.4492935982947064e-16 L -1.9903694533443939,0.19603428065912118 L -1.9615705608064609,0.3901806440322567 L -1.9138806714644179,0.5805693545089242 L -1.8477590650225737,0.7653668647301793 L -1.76384252869671,0.9427934736519953 L -1.662939224605091,1.111140466039204 L -1.5460209067254742,1.2687865683272905 L -1.4142135623730954,1.414213562373095 L -1.2687865683272919,1.5460209067254733 L -1.1111404660392044,1.6629392246050905 L -0.9427934736519957,1.7638425286967099 L -0.7653668647301807,1.847759065022573 L -0.5805693545089249,1.9138806714644176 L -0.39018064403225733,1.9615705608064606 L -0.1960342806591209,1.9903694533443939 L -3.6739403974420594e-16,2.0 L 0.19603428065912018,1.9903694533443939 L 0.3901806440322566,1.9615705608064609 L 0.5805693545089241,1.9138806714644179 L 0.76536686473018,1.8477590650225733 L 0.9427934736519952,1.76384252869671 L 1.1111404660392037,1.662939224605091 L 1.25,1.5599539753879863 L 1.2312134316727081,1.5460209067254733 L 1.0857864376269046,1.414213562373095 L 0.9539790932745258,1.2687865683272905 L 0.8370607753949091,1.111140466039204 L 0.7361574713032899,0.9427934736519953 L 0.6522409349774263,0.7653668647301793 L 0.5861193285355821,0.5805693545089242 L 0.5384294391935391,0.3901806440322567 L 0.5096305466556061,0.19603428065912118 L 0.5,-2.4492935982947064e-16 L 0.5096305466556064,-0.19603428065912165 L 0.5384294391935391,-0.3901806440322572 L 0.5861193285355824,-0.5805693545089248 L 0.6522409349774265,-0.7653668647301798 L 0.7361574713032901,-0.9427934736519957 L 0.8370607753949093,-1.1111404660392044 L 0.953979093274526,-1.268786568327291 L 1.085786437626905,-1.4142135623730951 L 1.2312134316727092,-1.5460209067254742 L 1.25,-1.5599539753879863 L 1.1111404660392046,-1.6629392246050905 z" /></g></svg>