<svg xmlns="http://www.w3.org/2000/svg" xmlns:xlink="http://www.w3.org/1999/xlink" width="100.0" height="100.0" viewBox="1.09 -2.16 3.5700000000000003 4.32" preserveAspectRatio="xMinYMin meet"><g transform="matrix(1,0,0,-1,0,0.0)"><path fill-rule="evenodd" fill="#66cc99" stroke="#555555" stroke-width="0.0864" opacity="0.6" d="M 4.490369453344394,-0.1960342806591212 L 4.461570560806461,-0.3901806440322565 L 4.413880671464417,-0.5805693545089247 L 4.347759065022574,-0.7653668647301796 L 4.26384252869671,-0.9427934736519953 L 4.162939224605091,-1.1111404660392044 L 4.046020906725474,-1.268786568327291 L 3.914213562373095,-1.414213562373095 L 3.768786568327291,-1.546020906725474 L 3.6111404660392044,-1.6629392246050905 L 3.442793473651996,-1.7638425286967099 L 3.2653668647301797,-1.8477590650225735 L 3.0805693545089246,-1.9138806714644179 L 2.890180644032257,-1.9615705608064609 L 2.6960342806591218,-1.9903694533443936 L 2.5,-2.0 L 2.3039657193408787,-1.9903694533443939 L 2.1098193559677436,-1.9615705608064609 L 1.9194306454910757,-1.9138806714644179 L 1.7346331352698205,-1.8477590650225735 L 1.5572065263480046,-1.76384252869671 L 1.388859533960796,-1.662939224605091 L 1.25,-1.5599539753879863 L 1.268786568327291,-1.546020906725474 L 1.4142135623730951,-1.414213562373095 L 1.546020906725474,-1.268786568327291 L 1.6629392246050905,-1.1111404660392044 L 1.76384252869671,-0.9427934736519953 L 1.8477590650225735,-0.7653668647301796 L 1.9138806714644176,-0.5805693545089247 L 1.9615705608064609,-0.3901806440322565 L 1.9903694533443939,-0.1960342806591212 L 2.0,0.0 L 1.9903694533443939,0.196034280659121 L 1.9615705608064606,0.39018064403225744 L 1.9138806714644176,0.580569354508925 L 1.847759065022573,0.7653668647301808 L 1.7638425286967097,0.9427934736519958 L 1.6629392246050905,1.1111404660392044 L 1.5460209067254733,1.2687865683272919 L 1.4142135623730947,1.4142135623730954 L 1.2687865683272912,1.5460209067254738 L 1.25,1.5599539753879863 L 1.3888595339607956,1.6629392246050905 L 1.5572065263480042,1.7638425286967099 L 1.7346331352698194,1.847759065022573 L 1.919430645491075,1.9138806714644176 L 2.1098193559677427,1.9615705608064606 L 2.303965719340879,1.9903694533443939 L 2.4999999999999996,2.0 L 2.69603428065912,1.9903694533443939 L 2.890180644032257,1.9615705608064609 L 3.080569354508924,1.9138806714644179 L 3.26536686473018,1.8477590650225733 L 3.442793473651995,1.76384252869671 L 3.6111404660392035,1.662939224605091 L 3.7687865683272914,1.5460209067254738 L 3.914213562373095,1.4142135623730954 L 4.046020906725474,1.2687865683272919 L 4.162939224605091,1.1111404660392044 L 4.26384252869671,0.9427934736519958 L 4.347759065022573,0.7653668647301808 L 4.413880671464417,0.580569354508925 L 4.461570560806461,0.39018064403225744 L 4.490369453344394,0.196034280659121 L 4.5,0.0 L 4.490369453344394,-0.1960342806591212 z" /></g></svg>