<svg xmlns="http://www.w3.org/2000/svg" xmlns:xlink="http://www.w3.org/1999/xlink" width="100.0" height="100.0" viewBox="-2.16 -2.16 3.5700000000000003 4.32" preserveAspectRatio="xMinYMin meet"><g transform="matrix(1,0,0,-1,0,0.0)"><path fill-rule="evenodd" fill="#66cc99" stroke="#555555" stroke-width="0.0864" opacity="0.6" d="M 1.2499999999999998,-1.5599539753879863 L 1.1111404660392061,-1.6629392246050894 L 0.9427934736519972,-1.763842528696709 L 0.7653668647301817,-1.8477590650225726 L 0.5805693545089272,-1.913880671464417 L 0.39018064403225927,-1.9615705608064604 L 0.19603428065912418,-1.9903694533443934 L 3.2310891488651735e-15,-2.0 L -0.19603428065911777,-1.990369453344394 L -0.39018064403225294,-1.9615705608064615 L -0.580569354508921,-1.9138806714644188 L -0.7653668647301757,-1.847759065022575 L -0.9427934736519914,-1.763842528696712 L -1.111140466039201,-1.6629392246050927 L -1.2687865683272879,-1.5460209067254764 L -1.4142135623730925,-1.4142135623730976 L -1.5460209067254718,-1.2687865683272936 L -1.6629392246050887,-1.1111404660392072 L -1.7638425286967085,-0.9427934736519981 L -1.8477590650225724,-0.7653668647301822 L -1.913880671464417,-0.5805693545089273 L -1.9615705608064604,-0.39018064403225894 L -1.9903694533443936,-0.19603428065912343 L -2.0,-2.021286199229721e-15 L -1.9903694533443939,0.1960342806591194 L -1.9615705608064613,0.390180644032255 L -1.913880671464418,0.5805693545089234 L -1.847759065022574,0.7653668647301785 L -1.7638425286967105,0.9427934736519945 L -1.662939224605091,1.111140466039204 L -1.5460209067254742,1.2687865683272905 L -1.4142135623730954,1.414213562373095 L -1.2687865683272919,1.5460209067254733 L -1.111140466039206,1.6629392246050896 L -0.9427934736519974,1.763842528696709 L -0.7653668647301823,1.8477590650225724 L -0.5805693545089282,1.9138806714644168 L -0.3901806440322608,1.96157056080646 L -0.1960342806591262,1.9903694533443932 L -5.696464557944958e-15,2.0 L 0.19603428065911485,1.9903694533443943 L 0.3901806440322496,1.9615705608064622 L 0.5805693545089173,1.9138806714644199 L 0.7653668647301718,1.8477590650225768 L 0.9427934736519873,1.7638425286967143 L 1.1111404660391964,1.6629392246050958 L 1.2500000000000002,1.5599539753879865 L 1.2312134316727081,1.5460209067254733 L 1.0857864376269046,1.414213562373095 L 0.9539790932745258,1.2687865683272905 L 0.8370607753949091,1.111140466039204 L 0.7361574713032895,0.9427934736519945 L 0.6522409349774261,0.7653668647301785 L 0.5861193285355819,0.5805693545089234 L 0.5384294391935387,0.390180644032255 L 0.5096305466556061,0.1960342806591194 L 0.5,-2.021286199229721e-15 L 0.5096305466556064,-0.19603428065912343 L 0.5384294391935396,-0.39018064403225894 L 0.586119328535583,-0.5805693545089273 L 0.6522409349774276,-0.7653668647301822 L 0.7361574713032915,-0.9427934736519981 L 0.8370607753949113,-1.1111404660392072 L 0.9539790932745282,-1.2687865683272936 L 1.0857864376269075,-1.4142135623730976 L 1.2312134316727121,-1.5460209067254764 L 1.2499999999999998,-1.5599539753879863 z" /></g></svg>