<svg xmlns="http://www.w3.org/2000/svg" xmlns:xlink="http://www.w3.org/1999/xlink" width="100.0" height="100.0" viewBox="1.0899999999999999 -2.16 3.5700000000000003 4.32" preserveAspectRatio="xMinYMin meet"><g transform="matrix(1,0,0,-1,0,0.0)"><path fill-rule="evenodd" fill="#66cc99" stroke="#555555" stroke-width="0.0864" opacity="0.6" d="M 4.5,0.0 L 4.490369453344394,-0.196034280659121 L 4.461570560806461,-0.39018064403225616 L 4.413880671464418,-0.5805693545089242 L 4.347759065022574,-0.7653668647301788 L 4.263842528696711,-0.9427934736519944 L 4.162939224605092,-1.1111404660392035 L 4.046020906725475,-1.2687865683272899 L 3.9142135623730963,-1.4142135623730938 L 3.7687865683272923,-1.5460209067254727 L 3.611140466039206,-1.6629392246050894 L 3.442793473651997,-1.763842528696709 L 3.265366864730182,-1.8477590650225726 L 3.080569354508927,-1.913880671464417 L 2.8901806440322595,-1.9615705608064604 L 2.696034280659124,-1.9903694533443934 L 2.500000000000003,-2.0 L 2.3039657193408822,-1.990369453344394 L 2.109819355967747,-1.9615705608064615 L 1.919430645491079,-1.9138806714644188 L 1.7346331352698243,-1.847759065022575 L 1.5572065263480086,-1.763842528696712 L 1.388859533960799,-1.6629392246050927 L 1.2499999999999998,-1.5599539753879863 L 1.2687865683272925,-1.5460209067254727 L 1.4142135623730963,-1.4142135623730938 L 1.5460209067254749,-1.2687865683272899 L 1.6629392246050911,-1.1111404660392035 L 1.7638425286967105,-0.9427934736519944 L 1.847759065022574,-0.7653668647301788 L 1.9138806714644179,-0.5805693545089242 L 1.961570560806461,-0.39018064403225616 L 1.9903694533443939,-0.196034280659121 L 2.0,0.0 L 2.0,1.6477070274261195e-14 L 1.9903694533443923,0.19603428065913694 L 1.961570560806458,0.3901806440322714 L 1.9138806714644134,0.5805693545089385 L 1.8477590650225681,0.7653668647301923 L 1.7638425286967039,0.9427934736520068 L 1.6629392246050836,1.1111404660392148 L 1.5460209067254664,1.2687865683273 L 1.4142135623730872,1.414213562373103 L 1.268786568327283,1.5460209067254804 L 1.2500000000000002,1.5599539753879865 L 1.388859533960794,1.6629392246050896 L 1.5572065263480026,1.763842528696709 L 1.7346331352698177,1.8477590650225724 L 1.919430645491072,1.9138806714644168 L 2.109819355967739,1.96157056080646 L 2.303965719340874,1.9903694533443932 L 2.4999999999999942,2.0 L 2.6960342806591147,1.9903694533443943 L 2.8901806440322497,1.9615705608064622 L 3.0805693545089174,1.9138806714644199 L 3.2653668647301717,1.8477590650225768 L 3.4427934736519874,1.7638425286967143 L 3.6111404660391964,1.6629392246050958 L 3.768786568327283,1.5460209067254804 L 3.914213562373087,1.414213562373103 L 4.046020906725467,1.2687865683273 L 4.162939224605084,1.1111404660392148 L 4.263842528696704,0.9427934736520068 L 4.347759065022569,0.7653668647301923 L 4.413880671464414,0.5805693545089385 L 4.461570560806458,0.3901806440322714 L 4.4903694533443925,0.19603428065913694 L 4.5,1.6477070274261195e-14 L 4.5,0.0 z" /></g></svg>