<svg xmlns="http://www.w3.org/2000/svg" xmlns:xlink="http://www.w3.org/1999/xlink" width="100.0" height="100.0" viewBox="0.3752036819689611 -1.6847502934190253 1.7495926360620777 3.3695005868380505" preserveAspectRatio="xMinYMin meet"><g transform="matrix(1,0,0,-1,0,2.220446049250313e-16)"><path fill-rule="evenodd" fill="#66cc99" stroke="#555555" stroke-width="0.06739001173676101" opacity="0.6" d="M 2.0,0.0 L 1.9903694533443939,-0.196034280659121 L 1.961570560806461,-0.39018064403225616 L 1.9138806714644179,-0.5805693545089242 L 1.847759065022574,-0.7653668647301788 L 1.7638425286967105,-0.9427934736519944 L 1.6629392246050911,-1.1111404660392035 L 1.5460209067254749,-1.2687865683272899 L 1.4142135623730963,-1.4142135623730938 L 1.2687865683272925,-1.5460209067254727 L 1.2499999999999998,-1.5599539753879863 L 1.2312134316727121,-1.5460209067254764 L 1.0857864376269075,-1.4142135623730976 L 0.9539790932745282,-1.2687865683272936 L 0.8370607753949113,-1.1111404660392072 L 0.7361574713032915,-0.9427934736519981 L 0.6522409349774276,-0.7653668647301822 L 0.586119328535583,-0.5805693545089273 L 0.5384294391935396,-0.39018064403225894 L 0.5096305466556064,-0.19603428065912343 L 0.5,-2.021286199229721e-15 L 0.5096305466556061,0.1960342806591194 L 0.5384294391935387,0.390180644032255 L 0.5861193285355819,0.5805693545089234 L 0.6522409349774261,0.7653668647301785 L 0.7361574713032895,0.9427934736519945 L 0.8370607753949091,1.111140466039204 L 0.9539790932745258,1.2687865683272905 L 1.0857864376269046,1.414213562373095 L 1.2312134316727081,1.5460209067254733 L 1.2500000000000002,1.5599539753879865 L 1.268786568327283,1.5460209067254804 L 1.4142135623730872,1.414213562373103 L 1.5460209067254664,1.2687865683273 L 1.6629392246050836,1.1111404660392148 L 1.7638425286967039,0.9427934736520068 L 1.8477590650225681,0.7653668647301923 L 1.9138806714644134,0.5805693545089385 L 1.961570560806458,0.3901806440322714 L 1.9903694533443923,0.19603428065913694 L 2.0,1.6477070274261195e-14 L 2.0,0.0 z" /></g></svg>